<svg width="80" height="80" viewBox="0 0 80 80" fill="none" xmlns="http://www.w3.org/2000/svg">
<path d="M62.8148 22.3704C53.7428 22.3704 49.3333 19.3173 49.3333 13.037C49.3333 12.4646 48.8698 12 48.2963 12H31.7037C31.1313 12 30.6667 12.4646 30.6667 13.037C30.6667 19.3173 26.2572 22.3704 17.1852 22.3704C16.6127 22.3704 16.1481 22.835 16.1481 23.4074V42.0741C16.1481 52.8282 38.4901 67.2295 39.441 67.8372C39.6111 67.945 39.8061 68 40 68C40.1939 68 40.3889 67.945 40.559 67.8372C41.5099 67.2295 63.8519 52.8282 63.8519 42.0741V23.4074C63.8519 22.835 63.3883 22.3704 62.8148 22.3704ZM61.7778 42.0741C61.7778 50.8339 43.4596 63.4236 40 65.7227C36.5404 63.4236 18.2222 50.8339 18.2222 42.0741V24.431C27.3917 24.1904 32.2575 20.7111 32.7065 14.0741H47.2935C47.7436 20.7111 52.6083 24.1904 61.7778 24.431V42.0741Z" fill="white"/>
<path d="M48.2965 34.814H43.1113V29.6288C43.1113 29.0564 42.6478 28.5918 42.0743 28.5918H37.9261C37.3537 28.5918 36.8891 29.0564 36.8891 29.6288V34.814H31.7039C31.1315 34.814 30.6669 35.2786 30.6669 35.8511V39.9992C30.6669 40.5717 31.1315 41.0362 31.7039 41.0362H36.8891V46.2214C36.8891 46.7949 37.3537 47.2585 37.9261 47.2585H42.0743C42.6478 47.2585 43.1113 46.7949 43.1113 46.2214V41.0362H48.2965C48.87 41.0362 49.3335 40.5717 49.3335 39.9992V35.8511C49.3335 35.2786 48.87 34.814 48.2965 34.814ZM47.2595 38.9622H42.0743C41.5008 38.9622 41.0372 39.4268 41.0372 39.9992V45.1844H38.9632V39.9992C38.9632 39.4268 38.4986 38.9622 37.9261 38.9622H32.7409V36.8881H37.9261C38.4986 36.8881 38.9632 36.4235 38.9632 35.8511V30.6659H41.0372V35.8511C41.0372 36.4235 41.5008 36.8881 42.0743 36.8881H47.2595V38.9622Z" fill="white"/>
</svg>
