<svg width="13" height="13" viewBox="0 0 13 13" fill="none" xmlns="http://www.w3.org/2000/svg">
<path d="M7.81341 3.10243C8.32777 3.2026 8.80049 3.45368 9.17106 3.82354C9.54162 4.1934 9.79318 4.66521 9.89354 5.17859L7.81341 3.10243ZM7.81341 1C8.88206 1.11849 9.87858 1.59613 10.6394 2.3545C11.4001 3.11286 11.8799 4.10688 12 5.17333L7.81341 1ZM11.4734 9.36769V10.9445C11.474 11.0909 11.4439 11.2358 11.3852 11.3699C11.3264 11.504 11.2403 11.6244 11.1322 11.7234C11.0241 11.8224 10.8965 11.8977 10.7576 11.9446C10.6186 11.9915 10.4714 12.0089 10.3254 11.9957C8.70488 11.82 7.14829 11.2673 5.78067 10.3821C4.50828 9.57513 3.42951 8.49842 2.62098 7.22846C1.73099 5.85726 1.17713 4.29609 1.00427 2.67144C0.991115 2.52609 1.00842 2.3796 1.05509 2.24129C1.10176 2.10298 1.17678 1.97589 1.27536 1.86811C1.37394 1.76032 1.49392 1.6742 1.62768 1.61524C1.76143 1.55627 1.90602 1.52575 2.05224 1.52561H3.63208C3.88765 1.5231 4.13542 1.61343 4.3292 1.77976C4.52298 1.94609 4.64955 2.17707 4.68531 2.42966C4.752 2.93427 4.87566 3.42975 5.05395 3.90662C5.1248 4.09474 5.14013 4.2992 5.09813 4.49576C5.05613 4.69232 4.95856 4.87274 4.81697 5.01565L4.14817 5.68317C4.89783 6.99906 5.98945 8.08859 7.30786 8.83683L7.97666 8.1693C8.11984 8.02799 8.30061 7.9306 8.49754 7.88868C8.69448 7.84676 8.89933 7.86206 9.08782 7.93278C9.5656 8.11072 10.062 8.23415 10.5676 8.3007C10.8234 8.33672 11.057 8.46533 11.224 8.66206C11.3911 8.85879 11.4798 9.10992 11.4734 9.36769Z" stroke="#0BCCC5" stroke-linecap="round" stroke-linejoin="round"/>
</svg>
